HIERARCHY
ROOT joint_0
{
	OFFSET 0.000000 0.000000 0.000000
	CHANNELS 6 Xposition Yposition Zposition Zrotation Yrotation Xrotation 
	JOINT joint_1
	{
		OFFSET 0.511002 1.944000 108.288940
		CHANNELS 3 Zrotation Yrotation Xrotation
		JOINT joint_2
		{
			OFFSET -9.074005 1.512993 98.440063
			CHANNELS 3 Zrotation Yrotation Xrotation
			JOINT joint_3
			{
				OFFSET -8.590996 1.815002 98.366943
				CHANNELS 3 Zrotation Yrotation Xrotation
				JOINT joint_4
				{
					OFFSET 2.489998 3.531998 136.462036
					CHANNELS 3 Zrotation Yrotation Xrotation
					JOINT joint_5
					{
						OFFSET 22.708000 2.955002 80.357056
						CHANNELS 3 Zrotation Yrotation Xrotation
						End Site
						{
							OFFSET 0.000000 0.000000 0.000000
						}
					}
				}
				JOINT joint_6
				{
					OFFSET 2.860001 -27.684998 77.234009
					CHANNELS 3 Zrotation Yrotation Xrotation
					JOINT joint_7
					{
						OFFSET 5.449997 -131.244003 -18.851929
						CHANNELS 3 Zrotation Yrotation Xrotation
						JOINT joint_8
						{
							OFFSET 35.757000 -24.661995 -264.074097
							CHANNELS 3 Zrotation Yrotation Xrotation
							JOINT joint_9
							{
								OFFSET 49.392001 -1.747002 -239.960938
								CHANNELS 3 Zrotation Yrotation Xrotation
								End Site
								{
									OFFSET 0.000000 0.000000 0.000000
								}
							}
						}
					}
				}
				JOINT joint_10
				{
					OFFSET -0.127998 31.625000 75.753052
					CHANNELS 3 Zrotation Yrotation Xrotation
					JOINT joint_11
					{
						OFFSET -5.618004 131.132996 -19.557007
						CHANNELS 3 Zrotation Yrotation Xrotation
						JOINT joint_12
						{
							OFFSET 46.488998 30.127991 -261.826050
							CHANNELS 3 Zrotation Yrotation Xrotation
							JOINT joint_13
							{
								OFFSET 66.021003 0.474030 -235.934937
								CHANNELS 3 Zrotation Yrotation Xrotation
								End Site
								{
									OFFSET 0.000000 0.000000 0.000000
								}
							}
						}
					}
				}
			}
		}
	}
	JOINT joint_14
	{
		OFFSET 15.887001 -78.871004 -94.561035
		CHANNELS 3 Zrotation Yrotation Xrotation
		JOINT joint_15
		{
			OFFSET -4.133003 6.714001 -473.615967
			CHANNELS 3 Zrotation Yrotation Xrotation
			JOINT joint_16
			{
				OFFSET -19.541000 5.340000 -399.613007
				CHANNELS 3 Zrotation Yrotation Xrotation
				JOINT joint_17
				{
					OFFSET 164.317001 41.657999 -73.195000
					CHANNELS 3 Zrotation Yrotation Xrotation
					End Site
					{
						OFFSET 0.000000 0.000000 0.000000
					}
				}
			}
		}
	}
	JOINT joint_18
	{
		OFFSET 6.513000 77.960991 -96.406982
		CHANNELS 3 Zrotation Yrotation Xrotation
		JOINT joint_19
		{
			OFFSET -10.660004 -8.518997 -473.485016
			CHANNELS 3 Zrotation Yrotation Xrotation
			JOINT joint_20
			{
				OFFSET -36.967995 -11.098999 -398.260010
				CHANNELS 3 Zrotation Yrotation Xrotation
				JOINT joint_21
				{
					OFFSET 166.067997 30.363998 -74.785000
					CHANNELS 3 Zrotation Yrotation Xrotation
					End Site
					{
						OFFSET 0.000000 0.000000 0.000000
					}
				}
			}
		}
	}
}
MOTION
Frames: 10
Frame Time: 0.016667
-1979.107056 889.527405 1060.354004 -0.830867 -2.463132 1.079283 -0.150066 0.483683 0.098076 -0.149654 -0.073531 -0.016412 -0.150138 0.119753 0.016428 0.269251 0.546477 -1.022293 0.000000 0.000000 0.000000 1.421421 0.116158 -0.824625 -0.016519 0.312932 -1.059427 0.087464 1.438581 0.477570 0.000000 0.000000 0.000000 -2.609897 0.665529 -1.429725 0.225770 1.192046 0.998559 0.897255 3.807670 3.085414 0.000000 0.000000 0.000000 -2.931814 1.323637 -1.810530 -2.957016 0.493066 -0.652419 -2.925900 0.392669 -1.399603 0.000000 0.000000 0.000000 -2.278756 0.287703 1.068341 -2.211850 -1.177604 -0.700575 -2.245745 2.228460 -1.416737 0.000000 0.000000 0.000000 
-1979.269287 889.448242 1060.326050 -0.810677 -2.482820 1.092418 -0.154750 0.466013 0.096530 -0.154645 -0.069691 -0.016933 -0.154888 0.117441 0.017487 0.273344 0.579583 -1.041036 0.000000 0.000000 0.000000 1.430669 0.117562 -0.815041 -0.021252 0.314908 -1.084751 0.090134 1.416040 0.489710 0.000000 0.000000 0.000000 -2.606450 0.662212 -1.469890 0.232953 1.192560 1.036581 0.898562 3.808367 3.090371 0.000000 0.000000 0.000000 -2.937264 1.324857 -1.821751 -2.962113 0.523606 -0.656570 -2.932627 0.350613 -1.391908 0.000000 0.000000 0.000000 -2.284219 0.293082 1.066522 -2.217122 -1.169186 -0.712445 -2.251693 2.229674 -1.419602 0.000000 0.000000 0.000000 
-1979.460205 889.389832 1060.280029 -0.789985 -2.506226 1.104795 -0.156862 0.457126 0.093690 -0.155921 -0.072174 -0.009253 -0.157470 0.119783 0.011279 0.279548 0.625494 -1.068928 0.000000 0.000000 0.000000 1.472986 0.124914 -0.828444 -0.030306 0.328519 -1.125586 0.105915 1.330556 0.563366 0.000000 0.000000 0.000000 -2.605095 0.656319 -1.508354 0.239571 1.190657 1.074287 0.899378 3.809190 3.093829 0.000000 0.000000 0.000000 -2.942664 1.315036 -1.832019 -2.966537 0.583597 -0.665191 -2.939824 0.290899 -1.379936 0.000000 0.000000 0.000000 -2.288480 0.280212 1.064202 -2.222339 -1.115325 -0.726461 -2.256135 2.203405 -1.416763 0.000000 0.000000 0.000000 
-1979.785767 889.282593 1060.217041 -0.770265 -2.541783 1.121871 -0.163109 0.448497 0.080677 -0.157822 -0.082805 0.024972 -0.165027 0.128590 -0.014928 0.298506 0.700726 -1.145728 0.000000 0.000000 0.000000 1.286305 0.066111 -0.814808 -0.016766 0.239586 -1.145358 0.123776 1.347851 0.650176 0.000000 0.000000 0.000000 -2.657086 0.621170 -1.527752 0.236526 1.166196 1.134085 0.893787 3.892666 3.069451 0.000000 0.000000 0.000000 -2.947691 1.288630 -1.841492 -2.969596 0.690201 -0.682242 -2.947389 0.210521 -1.362875 0.000000 0.000000 0.000000 -2.291146 0.237360 1.061039 -2.227844 -0.984271 -0.745941 -2.258664 2.136244 -1.405575 0.000000 0.000000 0.000000 
-1980.139893 889.196106 1060.135986 -0.749768 -2.581062 1.138009 -0.167627 0.448590 0.066836 -0.156965 -0.100069 0.066534 -0.171174 0.142357 -0.046853 0.320418 0.789359 -1.234719 0.000000 0.000000 0.000000 1.137057 0.013136 -0.824582 -0.007566 0.162778 -1.181184 0.154836 1.302884 0.798957 0.000000 0.000000 0.000000 -2.708781 0.583571 -1.546380 0.232890 1.139128 1.193891 0.887527 3.976476 3.042798 0.000000 0.000000 0.000000 -2.952618 1.251395 -1.849863 -2.971945 0.825892 -0.703822 -2.955442 0.113141 -1.341707 0.000000 0.000000 0.000000 -2.293087 0.176342 1.057369 -2.233788 -0.807898 -0.766966 -2.260217 2.042388 -1.389064 0.000000 0.000000 0.000000 
-1980.228638 889.351562 1060.021973 -0.722673 -2.596957 1.135296 -0.147884 0.482602 0.078926 -0.137655 -0.118005 0.063493 -0.152327 0.164902 -0.047223 0.317282 0.839693 -1.230130 0.000000 0.000000 0.000000 1.840354 0.185003 -1.028425 -0.087361 0.448255 -1.359548 0.242590 0.649227 1.203853 0.000000 0.000000 0.000000 -2.610935 0.616288 -1.613325 0.253966 1.162736 1.182083 0.898131 3.814998 3.092570 0.000000 0.000000 0.000000 -2.959935 1.205427 -1.853733 -2.976604 0.961764 -0.721237 -2.965790 0.008111 -1.319621 0.000000 0.000000 0.000000 -2.295689 0.107518 1.053856 -2.240683 -0.635021 -0.779553 -2.261963 1.938493 -1.370836 0.000000 0.000000 0.000000 
-1979.919067 889.948120 1059.828979 -0.684266 -2.608802 1.102213 -0.085915 0.480065 0.139189 -0.088222 -0.129371 -0.013761 -0.092193 0.186695 0.004048 0.279173 0.925264 -1.103700 0.000000 0.000000 0.000000 4.273676 0.839060 -1.621483 -0.357500 1.494043 -1.848155 0.438286 -1.220705 2.113346 0.000000 0.000000 0.000000 -2.151434 0.780856 -1.786519 0.315815 1.269750 1.071874 0.933670 3.277080 3.253362 0.000000 0.000000 0.000000 -2.970478 1.186526 -1.855933 -2.985135 1.085694 -0.730258 -2.979571 -0.106296 -1.296671 0.000000 0.000000 0.000000 -2.300475 0.069839 1.044358 -2.249256 -0.486232 -0.774032 -2.264281 1.827805 -1.351673 0.000000 0.000000 0.000000 
-1979.344238 890.788513 1059.603027 -0.639581 -2.596197 1.049579 -0.002343 0.509710 0.229366 -0.020031 -0.143327 -0.099593 -0.012282 0.224396 0.063734 0.242574 0.963069 -0.969797 0.000000 0.000000 0.000000 7.580720 1.788515 -2.317239 -0.780964 2.981923 -2.425061 0.621041 -3.857608 3.076820 0.000000 0.000000 0.000000 -1.537424 1.016488 -2.039673 0.412419 1.432154 0.948288 0.974680 2.485229 3.432938 0.000000 0.000000 0.000000 -2.983254 1.157611 -1.852639 -2.995826 1.210121 -0.735609 -2.995509 -0.228314 -1.272748 0.000000 0.000000 0.000000 -2.305949 0.023375 1.035726 -2.258761 -0.340912 -0.760010 -2.266722 1.707059 -1.330759 0.000000 0.000000 0.000000 
-1978.600586 891.502014 1059.467041 -0.597216 -2.475784 0.993465 0.069443 0.811363 0.314643 0.046429 -0.179829 -0.143052 0.058188 0.313671 0.094448 0.216625 0.676683 -0.837389 0.000000 0.000000 0.000000 9.958088 2.491567 -2.706400 -1.152978 4.089245 -2.658178 0.652948 -6.018361 3.444869 0.000000 0.000000 0.000000 -1.249467 1.210053 -2.281299 0.528206 1.608014 0.865411 1.008579 1.584754 3.574898 0.000000 0.000000 0.000000 -2.996511 1.017278 -1.831266 -3.005275 1.339427 -0.742852 -3.010193 -0.340305 -1.250850 0.000000 0.000000 0.000000 -2.309373 -0.134374 1.046879 -2.267878 -0.188640 -0.755169 -2.269483 1.585415 -1.309845 0.000000 0.000000 0.000000 
-1977.729858 891.928650 1059.489990 -0.558839 -2.279227 0.936085 0.085631 1.727438 0.401994 0.071600 -0.286130 -0.167714 0.081332 0.484530 0.106804 0.172172 -0.141512 -0.591422 0.000000 0.000000 0.000000 10.766190 2.589361 -2.674213 -1.227842 4.337545 -2.191819 0.489018 -6.581511 2.646377 0.000000 0.000000 0.000000 -1.525030 1.291018 -2.510614 0.651837 1.754681 0.709364 1.156539 0.841073 4.109557 0.000000 0.000000 0.000000 -3.010242 0.821887 -1.775034 -3.014383 1.420061 -0.769690 -3.023750 -0.411501 -1.238832 0.000000 0.000000 0.000000 -2.311790 -0.362272 1.080566 -2.276654 -0.051053 -0.755166 -2.273095 1.490034 -1.294134 0.000000 0.000000 0.000000 
